<svg width="36" height="36" viewBox="0 0 36 36" fill="none" xmlns="http://www.w3.org/2000/svg">
<path d="M31.5 17.25C31.5052 19.2298 31.0426 21.1828 30.15 22.95C29.0916 25.0676 27.4646 26.8488 25.4512 28.0939C23.4377 29.3391 21.1174 29.9991 18.75 30C16.7702 30.0052 14.8172 29.5426 13.05 28.65L4.5 31.5L7.35 22.95C6.4574 21.1828 5.99484 19.2298 6 17.25C6.00092 14.8826 6.66092 12.5623 7.90608 10.5488C9.15124 8.53537 10.9324 6.90835 13.05 5.85C14.8172 4.95739 16.7702 4.49484 18.75 4.5H19.5C22.6265 4.67248 25.5796 5.99214 27.7937 8.20629C30.0079 10.4204 31.3275 13.3735 31.5 16.5V17.25Z" stroke="#266EF9" stroke-width="2" stroke-linecap="round" stroke-linejoin="round"/>
</svg>
