<svg width="42" height="42" viewBox="0 0 42 42" fill="none" xmlns="http://www.w3.org/2000/svg">
<path d="M31.5 7H10.5C8.567 7 7 8.567 7 10.5V31.5C7 33.433 8.567 35 10.5 35H31.5C33.433 35 35 33.433 35 31.5V10.5C35 8.567 33.433 7 31.5 7Z" stroke="#266EF9" stroke-width="2" stroke-linecap="round" stroke-linejoin="round"/>
<path d="M26.25 15.75H15.75V26.25H26.25V15.75Z" stroke="#266EF9" stroke-width="2" stroke-linecap="round" stroke-linejoin="round"/>
<path d="M15.75 1.75V7" stroke="#266EF9" stroke-width="2" stroke-linecap="round" stroke-linejoin="round"/>
<path d="M26.25 1.75V7" stroke="#266EF9" stroke-width="2" stroke-linecap="round" stroke-linejoin="round"/>
<path d="M15.75 35V40.25" stroke="#266EF9" stroke-width="2" stroke-linecap="round" stroke-linejoin="round"/>
<path d="M26.25 35V40.25" stroke="#266EF9" stroke-width="2" stroke-linecap="round" stroke-linejoin="round"/>
<path d="M35 15.75H40.25" stroke="#266EF9" stroke-width="2" stroke-linecap="round" stroke-linejoin="round"/>
<path d="M35 24.5H40.25" stroke="#266EF9" stroke-width="2" stroke-linecap="round" stroke-linejoin="round"/>
<path d="M1.75 15.75H7" stroke="#266EF9" stroke-width="2" stroke-linecap="round" stroke-linejoin="round"/>
<path d="M1.75 24.5H7" stroke="#266EF9" stroke-width="2" stroke-linecap="round" stroke-linejoin="round"/>
</svg>
