<svg width="44" height="44" viewBox="0 0 44 44" fill="none" xmlns="http://www.w3.org/2000/svg">
<path d="M40.3333 22H3.66667" stroke="#266EF9" stroke-width="2" stroke-linecap="round" stroke-linejoin="round"/>
<path d="M9.99167 9.36834L3.66667 22V33C3.66667 33.9725 4.05298 34.9051 4.74061 35.5927C5.42825 36.2804 6.36088 36.6667 7.33334 36.6667H36.6667C37.6391 36.6667 38.5718 36.2804 39.2594 35.5927C39.947 34.9051 40.3333 33.9725 40.3333 33V22L34.0083 9.36834C33.7048 8.75745 33.2368 8.24335 32.6571 7.88385C32.0774 7.52435 31.4088 7.3337 30.7267 7.33334H13.2733C12.5912 7.3337 11.9227 7.52435 11.3429 7.88385C10.7632 8.24335 10.2952 8.75745 9.99167 9.36834Z" stroke="#266EF9" stroke-width="2" stroke-linecap="round" stroke-linejoin="round"/>
<path d="M11 29.3333H11.0175" stroke="#266EF9" stroke-width="2" stroke-linecap="round" stroke-linejoin="round"/>
<path d="M18.3333 29.3333H18.3508" stroke="#266EF9" stroke-width="2" stroke-linecap="round" stroke-linejoin="round"/>
</svg>
